<svg xmlns="http://www.w3.org/2000/svg" width="50.688" height="46.656">
    <defs>
        <filter id="a">
            <feFlood flood-color="#2B2B2B" flood-opacity="1" result="floodOut"/>
            <feComposite in="floodOut" in2="SourceGraphic" operator="atop" result="compOut"/>
            <feBlend in="compOut" in2="SourceGraphic"/>
        </filter>
    </defs>
    <path fill="#FFF" fill-rule="evenodd" d="M32.499 34.189H5.285c-2.5 0-4.535-2.062-4.535-4.597V11.203c0-2.535 2.035-4.597 4.535-4.597h4.536v-1.97c0-2.535 2.035-4.598 4.535-4.598h8.424c2.5 0 4.535 2.063 4.535 4.598v1.97h5.184c2.5 0 4.535 2.062 4.535 4.597v18.389c0 2.535-2.035 4.597-4.535 4.597zm-6.48-29.553c0-1.811-1.453-3.284-3.239-3.284h-8.424c-1.786 0-3.239 1.473-3.239 3.284v1.97h14.902v-1.97zm9.719 6.567c0-1.811-1.453-3.284-3.239-3.284H5.285c-1.786 0-3.239 1.473-3.239 3.284v18.389c0 1.81 1.453 3.284 3.239 3.284h27.214c1.786 0 3.239-1.474 3.239-3.284V11.203zm-4.535 17.075H6.581a.652.652 0 0 1-.648-.657c0-.363.29-.656.648-.656h24.622c.358 0 .648.293.648.656 0 .363-.29.657-.648.657zm0-7.224H6.581a.652.652 0 0 1-.648-.656c0-.364.29-.657.648-.657h24.622c.358 0 .648.293.648.657 0 .362-.29.656-.648.656zm0-7.224H6.581a.652.652 0 0 1-.648-.657c0-.363.29-.656.648-.656h24.622c.358 0 .648.293.648.656 0 .363-.29.657-.648.657z" filter="url(#a)"/>
</svg>
