<svg xmlns="http://www.w3.org/2000/svg" width="48" height="49.344">
    <defs>
        <filter id="a">
            <feFlood flood-color="#2B2B2B" flood-opacity="1" result="floodOut"/>
            <feComposite in="floodOut" in2="SourceGraphic" operator="atop" result="compOut"/>
            <feBlend in="compOut" in2="SourceGraphic"/>
        </filter>
    </defs>
    <path fill="#FFF" fill-rule="evenodd" d="M18.068.559h-.023l-.02.001C8.22.584.281 8.538.281 18.347c0 9.807 7.939 17.761 17.744 17.785l.02.001h.023c9.821 0 17.786-7.965 17.786-17.786 0-9.824-7.965-17.788-17.786-17.788zm.711 10.645c1.886-.052 3.721-.3 5.488-.731.532 2.097.862 4.514.915 7.162h-6.403v-6.431zm0-1.423V2.095c1.918.531 3.861 3.088 5.1 7.01a24.824 24.824 0 0 1-5.1.676zm-1.423-7.703v7.703a24.738 24.738 0 0 1-5.141-.687c1.249-3.946 3.21-6.513 5.141-7.016zm0 9.124v6.433h-6.447c.052-2.653.384-5.073.917-7.17 1.78.435 3.629.687 5.53.737zm-7.879 6.433H1.722a16.289 16.289 0 0 1 3.701-9.663 26.223 26.223 0 0 0 5.026 2.121c-.575 2.268-.92 4.827-.972 7.542zm0 1.423c.052 2.714.397 5.272.972 7.542a26.25 26.25 0 0 0-5.026 2.121 16.289 16.289 0 0 1-3.701-9.663h7.755zm1.432 0h6.447v6.424a26.12 26.12 0 0 0-5.531.74c-.533-2.096-.864-4.515-.916-7.164zm6.447 7.846v7.711c-1.932-.505-3.895-3.074-5.143-7.024a24.69 24.69 0 0 1 5.143-.687zm1.423 7.693v-7.693c1.752.05 3.457.282 5.101.678-1.238 3.924-3.182 6.484-5.101 7.015zm0-9.115v-6.424h6.403c-.053 2.646-.383 5.059-.913 7.155a26.147 26.147 0 0 0-5.49-.731zm7.835-6.424h7.799a16.28 16.28 0 0 1-3.7 9.661 26.361 26.361 0 0 0-5.068-2.133c.573-2.267.916-4.82.969-7.528zm0-1.423c-.053-2.713-.397-5.266-.971-7.535a26.068 26.068 0 0 0 5.066-2.133 16.297 16.297 0 0 1 3.704 9.668h-7.799zm3.114-10.754a24.956 24.956 0 0 1-4.47 1.848c-.832-2.676-2-4.861-3.38-6.296a16.365 16.365 0 0 1 7.85 4.448zM14.201 2.448c-1.373 1.432-2.536 3.606-3.365 6.268a24.677 24.677 0 0 1-4.429-1.835 16.364 16.364 0 0 1 7.794-4.433zM6.402 29.807a24.548 24.548 0 0 1 4.433-1.837c.829 2.665 1.991 4.843 3.366 6.275a16.372 16.372 0 0 1-7.799-4.438zm15.475 4.45c1.383-1.433 2.551-3.619 3.383-6.3a24.696 24.696 0 0 1 4.472 1.851 16.353 16.353 0 0 1-7.855 4.449z" filter="url(#a)"/>
</svg>
