<svg xmlns="http://www.w3.org/2000/svg" width="46.656" height="46.656">
    <defs>
        <filter id="a">
            <feFlood flood-color="#2B2B2B" flood-opacity="1" result="floodOut"/>
            <feComposite in="floodOut" in2="SourceGraphic" operator="atop" result="compOut"/>
            <feBlend in="compOut" in2="SourceGraphic"/>
        </filter>
    </defs>
    <path fill="#A39AC2" fill-rule="evenodd" d="M30.831 18.941v-7.052a.78.78 0 0 0-.391-.676l-6.285-3.609V5.069a.779.779 0 0 0-.381-.671L17.537.696l-.009-.002-.372-.108-.01.003-.055.01-.283.078-.068.019-6.237 3.702a.779.779 0 0 0-.381.671v2.555l-6.25 3.589a.78.78 0 0 0-.391.676v7.031L.368 20.767a.781.781 0 0 0-.382.671v7.405c0 .275.145.53.382.67l6.237 3.703.398.109.398-.109 3.266-1.938 6.101 3.502.388.104.388-.104 6.084-3.493 3.248 1.929.398.109.398-.109 6.238-3.703a.78.78 0 0 0 .381-.67v-7.405a.782.782 0 0 0-.381-.671l-3.079-1.826zm1.901 8.298l-4.661-2.92v-5.204l4.661 2.767v5.357zM17.155 9.301l4.883 3.06-4.899 2.908-4.898-2.907 4.914-3.061zm5.441 1.568l-4.66-2.92V2.746l4.66 2.766v5.357zm-6.22-8.144v5.224l-4.695 2.925V5.512l4.695-2.787zM6.241 19.094v5.224l-4.695 2.925v-5.361l4.695-2.788zm6.22 2.788v5.357L7.8 24.319v-5.204l4.661 2.767zm-5.458 9.757l-4.897-2.907 4.913-3.063 4.884 3.061-4.9 2.909zm10.153 1.566l-4.95-2.842 1.433-.85a.78.78 0 0 0 .381-.67v-7.405a.782.782 0 0 0-.381-.671l-6.238-3.702-.009-.003-.372-.106-.009.002-.056.01-.282.078-.068.019-1.565.929v-5.653l5.082-2.92v3.053c0 .274.144.529.381.669l6.237 3.703.399.11.398-.11 6.237-3.703a.777.777 0 0 0 .381-.669V9.402l5.117 2.939v5.674l-1.6-.95-.009-.003-.371-.106-.01.002-.056.01-.282.078-.068.019-6.237 3.702a.781.781 0 0 0-.382.671v7.405c0 .275.145.53.382.67l1.449.86-4.932 2.832zm9.356-14.111v5.224l-4.696 2.925v-5.361l4.696-2.788zm.762 12.545l-4.897-2.907 4.913-3.063 4.884 3.061-4.9 2.909z" filter="url(#a)"/>
</svg>
