<svg xmlns="http://www.w3.org/2000/svg" width="46.656" height="46.656">
    <defs>
        <filter id="a">
            <feFlood flood-color="#2B2B2B" flood-opacity="1" result="floodOut"/>
            <feComposite in="floodOut" in2="SourceGraphic" operator="atop" result="compOut"/>
            <feBlend in="compOut" in2="SourceGraphic"/>
        </filter>
    </defs>
    <path fill="#A39AC2" fill-rule="evenodd" d="M28.864 16.343c-1.058 1.059-2.692 2.451-4.642 3.987v8.115c0 1.735-1.434 3.791-3.007 4.316l-3.873 1.333-.232.038a.713.713 0 0 1-.711-.71v-3.556c0-1.221-.453-2.531-1.451-2.818-.927.62-1.85 1.226-2.756 1.803a.718.718 0 0 1-.885-.097l-.24-.241a7.536 7.536 0 0 1-5.911 5.015l-3.574.595-.117.009a.71.71 0 0 1-.701-.827l.596-3.573a7.537 7.537 0 0 1 5.015-5.91l-.24-.24a.712.712 0 0 1-.097-.885c.575-.905 1.182-1.829 1.803-2.755-.288-.997-1.599-1.451-2.82-1.451H1.465a.709.709 0 0 1-.672-.943l1.336-3.878c.522-1.566 2.58-3 4.314-3h8.116c1.537-1.949 2.931-3.584 3.99-4.642 5.685-5.684 11.981-7.64 14.97-4.653 2.989 2.989 1.032 9.283-4.655 14.968zM17.821 29.866v2.559l2.937-1.011c.995-.332 2.041-1.857 2.041-2.969v-7.012a152.785 152.785 0 0 1-5.128 3.748l-1.327.995c1.069.845 1.477 2.391 1.477 3.69zm-15.058.1l-.432 2.591 2.592-.432a6.13 6.13 0 0 0 4.997-4.759L7.523 24.97a6.127 6.127 0 0 0-4.76 4.996zm3.68-17.874c-1.112 0-2.638 1.046-2.968 2.035l-1.013 2.942h2.559c1.3 0 2.847.409 3.692 1.477l.992-1.323a159.086 159.086 0 0 1 3.75-5.131H6.443zM32.514 2.38c-2.33-2.324-8.021-.284-12.96 4.654-.969.968-2.353 2.582-3.94 4.598l-.068.176-4.765 6.352a148.043 148.043 0 0 0-3.236 4.82l.523.523.3.174 2.845 2.843.174.302.522.522a148.16 148.16 0 0 0 4.822-3.237l6.353-4.763.175-.066c2.015-1.588 3.63-2.971 4.6-3.94 4.939-4.939 6.983-10.629 4.655-12.958zm-7.773 11.405a3.628 3.628 0 0 1-2.572-1.063 3.61 3.61 0 0 1-1.065-2.572c0-.97.379-1.883 1.065-2.57 1.374-1.374 3.77-1.374 5.144 0a3.611 3.611 0 0 1 1.065 2.57 3.61 3.61 0 0 1-1.065 2.572 3.626 3.626 0 0 1-2.572 1.063zm1.566-5.198a2.196 2.196 0 0 0-1.566-.649c-.592 0-1.148.23-1.566.649a2.191 2.191 0 0 0-.649 1.563 2.216 2.216 0 0 0 4.43 0c0-.59-.231-1.146-.649-1.563z" filter="url(#a)"/>
</svg>
