<svg xmlns="http://www.w3.org/2000/svg" width="46.656" height="46.656">
    <defs>
        <filter id="a">
            <feFlood flood-color="#2B2B2B" flood-opacity="1" result="floodOut"/>
            <feComposite in="floodOut" in2="SourceGraphic" operator="atop" result="compOut"/>
            <feBlend in="compOut" in2="SourceGraphic"/>
        </filter>
    </defs>
    <path fill="#5D5D5D" fill-rule="evenodd" d="M33.719.036a.695.695 0 0 0-.696.697v3.451l-5.235 2.73c-.726-.937-1.849-1.551-3.122-1.551a3.962 3.962 0 1 0-2.222 7.246l-1.738 3.911a3.921 3.921 0 0 0-.944-.126 3.97 3.97 0 0 0-3.965 3.965c0 .328.051.64.126.944l-3.911 1.738a3.962 3.962 0 0 0-7.246 2.221c0 1.329.662 2.5 1.668 3.22l-2.038 4.302H.972a.696.696 0 1 0 0 1.394h30.831a2.616 2.616 0 0 0 2.613-2.613V.733a.696.696 0 0 0-.697-.697zm-9.053 6.72c.983 0 1.83.561 2.262 1.375.003.004.002.01.005.014.002.005.006.006.009.01.183.353.296.747.296 1.172a2.575 2.575 0 0 1-2.572 2.572 2.576 2.576 0 0 1-2.573-2.572 2.575 2.575 0 0 1 2.573-2.571zm-4.904 11.032a2.575 2.575 0 0 1 2.572 2.571 2.574 2.574 0 0 1-2.572 2.571 2.574 2.574 0 0 1-2.572-2.571 2.575 2.575 0 0 1 2.572-2.571zM8.73 22.691a2.575 2.575 0 0 1 2.572 2.571 2.574 2.574 0 0 1-2.572 2.571 2.539 2.539 0 0 1-1.097-.255l-.003-.001a2.566 2.566 0 0 1-1.471-2.315 2.574 2.574 0 0 1 2.571-2.571zm23.073 10.093H5.938l1.758-3.711c.332.09.674.154 1.034.154a3.97 3.97 0 0 0 3.965-3.965c0-.327-.051-.639-.126-.943l3.911-1.738a3.966 3.966 0 0 0 3.282 1.742 3.97 3.97 0 0 0 3.966-3.964 3.963 3.963 0 0 0-1.744-3.282l1.737-3.911c.305.075.618.126.945.126a3.97 3.97 0 0 0 3.965-3.965 3.9 3.9 0 0 0-.199-1.178l4.591-2.393v25.809a1.22 1.22 0 0 1-1.22 1.219z" filter="url(#a)"/>
</svg>
