<svg xmlns="http://www.w3.org/2000/svg" width="46.656" height="48">
    <defs>
        <filter id="a">
            <feFlood flood-color="#2B2B2B" flood-opacity="1" result="floodOut"/>
            <feComposite in="floodOut" in2="SourceGraphic" operator="atop" result="compOut"/>
            <feBlend in="compOut" in2="SourceGraphic"/>
        </filter>
    </defs>
    <path fill="#FFF" fill-rule="evenodd" d="M17.417 35.133c-9.612 0-17.431-7.819-17.431-17.431C-.014 8.09 7.805.271 17.417.271c9.612 0 17.431 7.819 17.431 17.431 0 9.612-7.819 17.431-17.431 17.431zm0-33.521c-8.872 0-16.09 7.219-16.09 16.09 0 1.944.364 3.8.999 5.527l4.948-4.33 5.616 3.119 1.237-7.427 6.317-3.509.65 1.173-5.75 3.194-1.445 8.664-6.452-3.584-4.576 4.004c2.575 5.462 8.119 9.259 14.546 9.259 8.872 0 16.09-7.218 16.09-16.09 0-8.871-7.218-16.09-16.09-16.09zm3.378 17.247l2.487-8.708-8.027-1.852.301-1.306 9.404 2.17-2.876 10.064-1.289-.368z" filter="url(#a)"/>
</svg>
